<svg width="21" height="20" viewBox="0 0 21 20" fill="none" xmlns="http://www.w3.org/2000/svg">
<g clip-path="url(#clip0_76_10)">
<path d="M20.4498 5.47745C20.3512 5.97783 20.094 6.43312 19.7163 6.77592C19.3387 7.11873 18.8607 7.33082 18.3532 7.38079C18.3532 7.38079 17.4773 7.51829 17.0948 7.61745C17.1371 7.34297 17.1611 7.06596 17.1665 6.78829V3.34245C17.1644 2.89807 17.1036 2.45591 16.9857 2.02745C17.7995 2.24257 18.5822 2.56129 19.3148 2.97579C19.7475 3.21567 20.0915 3.58845 20.2959 4.03898C20.5003 4.48951 20.5543 4.99387 20.4498 5.47745ZM12.289 11.7741C12.6381 11.4171 12.8723 10.9637 12.9614 10.4724C13.0506 9.98109 12.9905 9.47434 12.789 9.01746L9.65901 3.00579C9.43128 2.48556 9.08453 2.0261 8.6467 1.66442C8.20888 1.30274 7.69222 1.04896 7.13835 0.923531C6.58448 0.798098 6.0089 0.804518 5.45796 0.942273C4.90703 1.08003 4.39616 1.34527 3.96651 1.71662C3.68151 1.95995 3.39651 2.21662 3.11818 2.47662C2.82235 2.75495 2.52068 3.06995 2.22068 3.41329C1.8444 3.84338 1.57583 4.35683 1.43716 4.91121C1.29849 5.4656 1.2937 6.04502 1.42318 6.60162C1.54948 7.1676 1.80666 7.6961 2.1741 8.14472C2.54154 8.59335 3.00901 8.94962 3.53901 9.18495L9.53901 12.2825C9.85606 12.4269 10.2006 12.5011 10.549 12.5C10.8726 12.5001 11.1931 12.436 11.4917 12.3114C11.7904 12.1868 12.0614 12.0042 12.289 11.7741ZM14.2273 0.718288C13.8348 0.406145 13.3764 0.18743 12.8868 0.0787119C12.3972 -0.0300063 11.8893 -0.0258768 11.4015 0.0907879C10.8895 0.213171 10.3849 0.364242 9.88985 0.543288C10.4267 1.02965 10.8588 1.62027 11.1598 2.27912L14.3098 8.33829C14.3653 8.47232 14.4137 8.60917 14.4548 8.74829L14.4632 8.73995C15.1328 7.91917 15.499 6.89258 15.4998 5.83329V3.34245C15.5009 2.83714 15.3869 2.33821 15.1664 1.88353C14.9459 1.42885 14.6248 1.03036 14.2273 0.718288ZM5.97735 19.9491C6.47757 19.8503 6.93267 19.593 7.27531 19.2154C7.61795 18.8378 7.82992 18.3599 7.87985 17.8525C7.87985 17.8525 8.01735 16.9766 8.11651 16.5941C7.84232 16.6367 7.5656 16.6609 7.28818 16.6666H3.84151C3.39713 16.6645 2.95498 16.6037 2.52651 16.4858C2.74111 17.3011 3.05985 18.0853 3.47485 18.8191C3.71562 19.251 4.08886 19.5939 4.53948 19.7974C4.99009 20.0009 5.49419 20.0541 5.97735 19.9491ZM3.84151 15H6.33318C7.39247 14.9991 8.41906 14.6329 9.23985 13.9633L9.24818 13.9558C9.1094 13.9142 8.97284 13.8655 8.83901 13.81L2.77985 10.66C2.12032 10.3588 1.52911 9.92643 1.04235 9.38912C0.863193 9.88402 0.712393 10.3887 0.59068 10.9008C0.473578 11.3885 0.469228 11.8965 0.577963 12.3862C0.686697 12.8759 0.905652 13.3343 1.21818 13.7266C1.53 14.1242 1.9283 14.4455 2.38285 14.6661C2.8374 14.8868 3.33625 15.0009 3.84151 15Z" fill="#A08963"/>
</g>
<defs>
<clipPath id="clip0_76_10">
<rect width="20" height="20" fill="white" transform="translate(0.5)"/>
</clipPath>
</defs>
</svg>
