<svg width="24" height="24" viewBox="0 0 24 24" fill="none" xmlns="http://www.w3.org/2000/svg">
<path d="M18 11.9999C17.9951 11.4738 17.7832 10.9708 17.41 10.5999L13.12 6.29995C12.9326 6.1137 12.6792 6.00916 12.415 6.00916C12.1508 6.00916 11.8974 6.1137 11.71 6.29995C11.6163 6.39291 11.5419 6.50351 11.4911 6.62537C11.4403 6.74723 11.4142 6.87794 11.4142 7.00995C11.4142 7.14196 11.4403 7.27266 11.4911 7.39452C11.5419 7.51638 11.6163 7.62698 11.71 7.71995L15 10.9999H5C4.73478 10.9999 4.48043 11.1053 4.29289 11.2928C4.10536 11.4804 4 11.7347 4 11.9999C4 12.2652 4.10536 12.5195 4.29289 12.707C4.48043 12.8946 4.73478 12.9999 5 12.9999H15L11.71 16.2899C11.5217 16.4769 11.4154 16.731 11.4144 16.9964C11.4135 17.2618 11.518 17.5166 11.705 17.7049C11.892 17.8932 12.1461 17.9996 12.4115 18.0005C12.6768 18.0014 12.9317 17.8969 13.12 17.7099L17.41 13.4099C17.7856 13.0366 17.9978 12.5295 18 11.9999Z" fill="#374957"/>
</svg>
