<svg width="17" height="16" viewBox="0 0 17 16" fill="none" xmlns="http://www.w3.org/2000/svg">
<g clip-path="url(#clip0_78_15)">
<path d="M15.8334 7.33304C15.6566 7.33304 15.487 7.2628 15.362 7.13778C15.237 7.01276 15.1667 6.84319 15.1667 6.66638C15.1653 5.25232 14.603 3.89659 13.6031 2.8967C12.6032 1.89681 11.2475 1.33445 9.83341 1.33304C9.6566 1.33304 9.48703 1.2628 9.36201 1.13778C9.23698 1.01276 9.16674 0.843186 9.16674 0.666375C9.16674 0.489564 9.23698 0.319995 9.36201 0.19497C9.48703 0.0699462 9.6566 -0.000291733 9.83341 -0.000291733C11.6009 0.00164933 13.2955 0.704652 14.5453 1.95447C15.7951 3.2043 16.4981 4.89886 16.5001 6.66638C16.5001 6.84319 16.4298 7.01276 16.3048 7.13778C16.1798 7.2628 16.0102 7.33304 15.8334 7.33304ZM13.8334 6.66638C13.8334 5.60551 13.412 4.58809 12.6618 3.83795C11.9117 3.0878 10.8943 2.66637 9.83341 2.66637C9.6566 2.66637 9.48703 2.73661 9.36201 2.86164C9.23698 2.98666 9.16674 3.15623 9.16674 3.33304C9.16674 3.50985 9.23698 3.67942 9.36201 3.80445C9.48703 3.92947 9.6566 3.99971 9.83341 3.99971C10.5407 3.99971 11.2189 4.28066 11.719 4.78076C12.2191 5.28085 12.5001 5.95913 12.5001 6.66638C12.5001 6.84319 12.5703 7.01276 12.6953 7.13778C12.8204 7.2628 12.9899 7.33304 13.1667 7.33304C13.3436 7.33304 13.5131 7.2628 13.6381 7.13778C13.7632 7.01276 13.8334 6.84319 13.8334 6.66638ZM15.2887 14.7757L15.8954 14.0764C16.2815 13.689 16.4984 13.1643 16.4984 12.6174C16.4984 12.0704 16.2815 11.5458 15.8954 11.1584C15.8747 11.1377 14.2707 9.90371 14.2707 9.90371C13.8858 9.53726 13.3744 9.33321 12.8429 9.33396C12.3115 9.3347 11.8007 9.54018 11.4167 9.90771L10.1461 10.9784C9.10886 10.5491 8.16667 9.91916 7.3736 9.12472C6.58053 8.33028 5.95222 7.387 5.52474 6.34904L6.59141 5.08238C6.95922 4.69849 7.16494 4.18763 7.16581 3.65598C7.16668 3.12433 6.96263 2.61279 6.59608 2.22771C6.59608 2.22771 5.36074 0.625708 5.34008 0.605042C4.95971 0.222207 4.444 0.00438961 3.90436 -0.00134854C3.36472 -0.0070867 2.8445 0.199715 2.45608 0.574375L1.68941 1.24104C-2.83993 6.49571 6.91341 16.1737 12.3414 15.9997C12.8895 16.0029 13.4327 15.8962 13.9389 15.686C14.4452 15.4758 14.9041 15.1662 15.2887 14.7757Z" fill="#A08963"/>
</g>
<defs>
<clipPath id="clip0_78_15">
<rect width="16" height="16" fill="white" transform="translate(0.5)"/>
</clipPath>
</defs>
</svg>
