<svg width="20" height="20" viewBox="0 0 20 20" fill="none" xmlns="http://www.w3.org/2000/svg">
<circle cx="9.99996" cy="6.66671" r="2.33333" stroke="#33363F" stroke-width="2" stroke-linecap="round"/>
<path d="M12.8676 6.75C13.0665 6.40547 13.3941 6.15408 13.7784 6.05111C14.1627 5.94815 14.5721 6.00205 14.9166 6.20096C15.2612 6.39987 15.5126 6.7275 15.6155 7.11177C15.7185 7.49604 15.6646 7.90547 15.4657 8.25C15.2668 8.59453 14.9391 8.84592 14.5549 8.94889C14.1706 9.05185 13.7612 8.99795 13.4166 8.79904C13.0721 8.60013 12.8207 8.2725 12.7177 7.88823C12.6148 7.50396 12.6687 7.09453 12.8676 6.75L12.8676 6.75Z" stroke="#33363F" stroke-width="2"/>
<path d="M4.53434 6.75C4.73325 6.40547 5.06088 6.15408 5.44515 6.05111C5.82941 5.94815 6.23885 6.00205 6.58337 6.20096C6.9279 6.39987 7.1793 6.7275 7.28226 7.11177C7.38523 7.49604 7.33132 7.90547 7.13241 8.25C6.9335 8.59453 6.60587 8.84592 6.2216 8.94889C5.83733 9.05185 5.4279 8.99795 5.08337 8.79904C4.73885 8.60013 4.48745 8.2725 4.38449 7.88823C4.28152 7.50396 4.33542 7.09453 4.53434 6.75L4.53434 6.75Z" stroke="#33363F" stroke-width="2"/>
<path d="M14.1665 11.667V10.667H14.1665L14.1665 11.667ZM17.2007 13.9102L18.1305 13.5421L18.1305 13.542L17.2007 13.9102ZM14.0532 15L13.0538 15.0351L13.0878 16H14.0532V15ZM14.0347 14.8447L15.009 14.6195L15.0089 14.619L14.0347 14.8447ZM12.3179 12.2588L11.7131 11.4624L10.5564 12.3407L11.7896 13.1079L12.3179 12.2588ZM14.1665 11.667V12.667C15.3573 12.667 15.9464 13.4588 16.2709 14.2783L17.2007 13.9102L18.1305 13.542C17.6849 12.4168 16.578 10.667 14.1665 10.667V11.667ZM17.2007 13.9102L16.2709 14.2782C16.2615 14.2545 16.2525 14.2103 16.2613 14.1563C16.2695 14.1052 16.2902 14.0668 16.3094 14.0426C16.3454 13.9973 16.3744 14 16.3667 14V15V16C16.9605 16 17.5172 15.7374 17.8751 15.287C18.2457 14.8208 18.3804 14.1733 18.1305 13.5421L17.2007 13.9102ZM16.3667 15V14H14.0532V15V16H16.3667V15ZM14.0532 15L15.0526 14.9649C15.0496 14.8796 15.041 14.7579 15.009 14.6195L14.0347 14.8447L13.0604 15.07C13.0564 15.0529 13.0547 15.0403 13.054 15.0342C13.0534 15.0283 13.0536 15.0276 13.0538 15.0351L14.0532 15ZM14.0347 14.8447L15.0089 14.619C14.7953 13.6973 14.2518 12.2842 12.8461 11.4097L12.3179 12.2588L11.7896 13.1079C12.5464 13.5787 12.9013 14.3835 13.0605 15.0705L14.0347 14.8447ZM12.3179 12.2588L12.9226 13.0552C13.2144 12.8336 13.6054 12.667 14.1665 12.667L14.1665 11.667L14.1665 10.667C13.1615 10.667 12.3472 10.9809 11.7131 11.4624L12.3179 12.2588Z" fill="#33363F"/>
<path d="M5.83301 11.667V10.667H5.8329L5.83301 11.667ZM7.68164 12.2588L8.20999 13.1078L9.44312 12.3404L8.28627 11.4623L7.68164 12.2588ZM5.96582 14.8447L4.99163 14.619L4.99155 14.6193L5.96582 14.8447ZM5.94629 15V16H6.91178L6.94567 15.0351L5.94629 15ZM3.63281 15L3.63278 16H3.63281V15ZM2.7998 13.9102L1.87005 13.542L1.87001 13.5421L2.7998 13.9102ZM5.83301 11.667V12.667C6.39391 12.667 6.78505 12.8337 7.07701 13.0553L7.68164 12.2588L8.28627 11.4623C7.65235 10.9811 6.83794 10.667 5.83301 10.667V11.667ZM7.68164 12.2588L7.15329 11.4098C5.74762 12.2845 5.20508 13.6979 4.99163 14.619L5.96582 14.8447L6.94001 15.0705C7.09931 14.383 7.45367 13.5785 8.20999 13.1078L7.68164 12.2588ZM5.96582 14.8447L4.99155 14.6193C4.96185 14.7477 4.95041 14.8652 4.94691 14.9649L5.94629 15L6.94567 15.0351C6.94573 15.0334 6.9454 15.0472 6.94009 15.0701L5.96582 14.8447ZM5.94629 15V14H3.63281V15V16H5.94629V15ZM3.63281 15L3.63284 14C3.62527 14 3.65477 13.9975 3.69104 14.0432C3.71035 14.0675 3.73096 14.106 3.7392 14.157C3.74788 14.2108 3.73888 14.2548 3.7296 14.2782L2.7998 13.9102L1.87001 13.5421C1.62038 14.1726 1.75416 14.8199 2.12441 15.2864C2.48217 15.7372 3.03887 16 3.63278 16L3.63281 15ZM2.7998 13.9102L3.72956 14.2783C4.05417 13.4586 4.64281 12.6671 5.83311 12.667L5.83301 11.667L5.8329 10.667C3.42162 10.6672 2.31546 12.4172 1.87005 13.542L2.7998 13.9102Z" fill="#33363F"/>
<path d="M10 11.6666C12.8472 11.6666 13.7488 13.6121 14.0344 14.8443C14.159 15.3824 13.719 15.8333 13.1667 15.8333H6.83337C6.28109 15.8333 5.84103 15.3824 5.96571 14.8443C6.25125 13.6121 7.15289 11.6666 10 11.6666Z" stroke="#33363F" stroke-width="2" stroke-linecap="round"/>
</svg>
