<svg width="24" height="25" viewBox="0 0 24 25" fill="none" xmlns="http://www.w3.org/2000/svg">
<path d="M12.3984 20.3037L12.8589 21.1914L12.8589 21.1914L12.3984 20.3037ZM11.6016 20.3037L11.1411 21.1914L11.1411 21.1914L11.6016 20.3037ZM12 4.5V5.5C15.3137 5.5 18 8.18629 18 11.5H19H20C20 7.08172 16.4183 3.5 12 3.5V4.5ZM19 11.5H18C18 13.6456 16.9081 15.4156 15.5453 16.7902C14.1835 18.1639 12.6348 19.0545 11.938 19.416L12.3984 20.3037L12.8589 21.1914C13.6455 20.7833 15.3976 19.78 16.9657 18.1983C18.5329 16.6174 20 14.3703 20 11.5H19ZM12.3984 20.3037L11.938 19.416C11.9521 19.4087 11.9738 19.4021 12 19.4021C12.0262 19.4021 12.0479 19.4087 12.062 19.416L11.6016 20.3037L11.1411 21.1914C11.6827 21.4723 12.3173 21.4723 12.8589 21.1914L12.3984 20.3037ZM11.6016 20.3037L12.062 19.416C11.3652 19.0545 9.81648 18.1639 8.45465 16.7902C7.0919 15.4156 6 13.6456 6 11.5H5H4C4 14.3703 5.46714 16.6174 7.0343 18.1983C8.60239 19.78 10.3545 20.7833 11.1411 21.1914L11.6016 20.3037ZM5 11.5H6C6 8.18629 8.68629 5.5 12 5.5V4.5V3.5C7.58172 3.5 4 7.08172 4 11.5H5ZM12 8.5V7.5C9.79086 7.5 8 9.29086 8 11.5H9H10C10 10.3954 10.8954 9.5 12 9.5V8.5ZM9 11.5H8C8 13.7091 9.79086 15.5 12 15.5V14.5V13.5C10.8954 13.5 10 12.6046 10 11.5H9ZM12 14.5V15.5C14.2091 15.5 16 13.7091 16 11.5H15H14C14 12.6046 13.1046 13.5 12 13.5V14.5ZM15 11.5H16C16 9.29086 14.2091 7.5 12 7.5V8.5V9.5C13.1046 9.5 14 10.3954 14 11.5H15Z" fill="white"/>
</svg>
