<svg width="24" height="24" viewBox="0 0 24 24" fill="none" xmlns="http://www.w3.org/2000/svg">
<path d="M10 18H11V14C11.4167 14 11.7708 13.8542 12.0625 13.5625C12.3542 13.2708 12.5 12.9167 12.5 12.5V9.5H11.5V12.5H11V9.5H10V12.5H9.5V9.5H8.5V12.5C8.5 12.9167 8.64583 13.2708 8.9375 13.5625C9.22917 13.8542 9.58333 14 10 14V18ZM14 18H15V9.5C14.45 9.5 13.9792 9.69583 13.5875 10.0875C13.1958 10.4792 13 10.95 13 11.5V14.5H14V18ZM4 21V9L12 3L20 9V21H4ZM6 19H18V10L12 5.5L6 10V19Z" fill="#706D54"/>
</svg>
